<svg width="48" height="48" viewBox="0 0 48 48" fill="none" xmlns="http://www.w3.org/2000/svg">
<g clip-path="url(#clip0_2_7)">
<path fill-rule="evenodd" clip-rule="evenodd" d="M-3.63514 -3.66217H51.6892V51.6622H-3.63514V-3.66217ZM-0.527028 -0.554062V48.554H48.5811V-0.554062H-0.527028ZM24.027 4.34121C20.1115 4.34121 16.3563 5.89664 13.5876 8.66534C10.8189 11.434 9.26351 15.1892 9.26351 19.1047C9.26351 23.2263 10.9474 27.7907 13.7107 31.3176C16.4786 34.8504 20.1507 37.1317 24.027 37.1317C27.9034 37.1317 31.5754 34.8504 34.3433 31.3176C37.1066 27.7907 38.7905 23.2263 38.7905 19.1047C38.7905 15.1892 37.2351 11.434 34.4664 8.66534C31.6977 5.89664 27.9426 4.34121 24.027 4.34121ZM11.3899 6.46758C14.7415 3.116 19.2872 1.2331 24.027 1.2331C28.7669 1.2331 33.3126 3.116 36.6642 6.46758C40.0158 9.81916 41.8986 14.3649 41.8986 19.1047C41.8986 23.9986 39.9315 29.2247 36.7899 33.2345C34.564 36.0755 31.6585 38.4118 28.3226 39.5293L30.3652 44.6357C30.5567 45.1145 30.4983 45.6571 30.2092 46.0841C29.9201 46.5111 29.438 46.7669 28.9223 46.7669H19.1318C18.6161 46.7669 18.134 46.5111 17.8449 46.0841C17.5558 45.6571 17.4973 45.1145 17.6889 44.6357L19.7314 39.5293C16.3955 38.4118 13.4901 36.0755 11.2641 33.2345C8.12253 29.2247 6.1554 23.9986 6.1554 19.1047C6.1554 14.3649 8.0383 9.81916 11.3899 6.46758ZM22.817 40.1842L21.4271 43.6588H26.6269L25.2371 40.1842C24.8381 40.221 24.4346 40.2399 24.027 40.2399C23.6195 40.2399 23.216 40.221 22.817 40.1842ZM24.1258 9.20172C24.2668 8.35509 25.0674 7.78304 25.914 7.92401C28.2386 8.31107 30.3841 9.41496 32.0504 11.0813C33.7168 12.7477 34.8207 14.8931 35.2077 17.2177C35.3487 18.0643 34.7767 18.8649 33.93 19.0059C33.0834 19.1469 32.2828 18.5748 32.1418 17.7282C31.8612 16.0428 31.0608 14.4872 29.8527 13.2791C28.6445 12.0709 27.0889 11.2705 25.4035 10.9899C24.5569 10.8489 23.9849 10.0483 24.1258 9.20172Z" fill="#2E36FF"/>
</g>
<defs>
<clipPath id="clip0_2_7">
<rect width="36.0541" height="46" fill="white" transform="translate(6 1)"/>
</clipPath>
</defs>
</svg>
