<svg width="349" height="74" viewBox="0 0 349 74" fill="none" xmlns="http://www.w3.org/2000/svg">
<g clip-path="url(#clip0_2_2)">
<path d="M93.06 60.292C92.0627 60.292 91.292 60.02 90.748 59.476C90.2493 58.8867 90 58.0933 90 57.096V11.196C90 10.1533 90.2493 9.36 90.748 8.816C91.292 8.272 92.0627 8 93.06 8C94.0573 8 94.828 8.29467 95.372 8.884C95.9613 9.428 96.256 10.1987 96.256 11.196V32.14C99.656 27.788 104.167 25.612 109.788 25.612C114.14 25.612 117.495 26.8813 119.852 29.42C122.255 31.9133 123.456 35.4493 123.456 40.028V57.096C123.456 58.0933 123.161 58.8867 122.572 59.476C122.028 60.02 121.28 60.292 120.328 60.292C119.331 60.292 118.56 60.02 118.016 59.476C117.472 58.8867 117.2 58.0933 117.2 57.096V40.028C117.2 36.9907 116.475 34.7013 115.024 33.16C113.619 31.6187 111.511 30.848 108.7 30.848C104.892 30.848 101.855 31.9813 99.588 34.248C97.3667 36.4693 96.256 39.484 96.256 43.292V57.096C96.256 58.0933 95.9613 58.8867 95.372 59.476C94.828 60.02 94.0573 60.292 93.06 60.292Z" fill="white"/>
<path d="M148.841 60.292C142.947 60.292 138.346 58.7733 135.037 55.736C131.773 52.6533 130.141 48.392 130.141 42.952C130.141 37.5573 131.75 33.3187 134.969 30.236C138.233 27.1533 142.743 25.612 148.501 25.612C152.037 25.612 155.165 26.1787 157.885 27.312C160.65 28.4 162.803 29.964 164.345 32.004C165.886 33.9987 166.657 36.288 166.657 38.872C166.657 40.8667 166.067 42.408 164.889 43.496C163.755 44.584 162.123 45.128 159.993 45.128H136.397C136.397 48.3013 137.462 50.772 139.593 52.54C141.769 54.2627 144.851 55.124 148.841 55.124C151.198 55.124 153.238 54.8747 154.961 54.376C156.729 53.8773 158.383 53.0613 159.925 51.928C161.058 51.1573 161.919 50.772 162.509 50.772C163.053 50.772 163.551 50.9987 164.005 51.452C164.639 52.0867 164.957 52.744 164.957 53.424C164.957 54.104 164.639 54.7387 164.005 55.328C160.287 58.6373 155.233 60.292 148.841 60.292ZM158.089 40.368C158.905 40.368 159.494 40.2093 159.857 39.892C160.219 39.5747 160.401 39.008 160.401 38.192C160.401 36.016 159.29 34.248 157.069 32.888C154.893 31.4827 152.037 30.78 148.501 30.78C144.829 30.78 141.905 31.6413 139.729 33.364C137.598 35.0867 136.533 37.4213 136.533 40.368H158.089Z" fill="white"/>
<path d="M176.732 60.292C175.735 60.292 174.964 60.02 174.42 59.476C173.921 58.8867 173.672 58.0933 173.672 57.096V28.808C173.672 26.6773 174.692 25.612 176.732 25.612C177.684 25.612 178.432 25.9067 178.976 26.496C179.52 27.04 179.792 27.8107 179.792 28.808V32.276C182.784 28.2867 186.841 26.292 191.964 26.292H193.596C194.684 26.292 195.523 26.5187 196.112 26.972C196.701 27.4253 196.996 28.0827 196.996 28.944C196.996 29.76 196.679 30.3947 196.044 30.848C195.455 31.3013 194.639 31.528 193.596 31.528H191.556C187.975 31.528 185.141 32.5933 183.056 34.724C180.971 36.8093 179.928 39.6653 179.928 43.292V57.096C179.928 58.0933 179.633 58.8867 179.044 59.476C178.5 60.02 177.729 60.292 176.732 60.292Z" fill="white"/>
<path d="M205.712 19.424C204.533 19.424 203.536 19.0613 202.72 18.336C201.904 17.5653 201.496 16.6133 201.496 15.48C201.496 14.3467 201.904 13.3947 202.72 12.624C203.536 11.8533 204.533 11.468 205.712 11.468C206.981 11.468 208.024 11.8533 208.84 12.624C209.701 13.3947 210.132 14.3467 210.132 15.48C210.132 16.568 209.701 17.4973 208.84 18.268C208.024 19.0387 206.981 19.424 205.712 19.424ZM205.78 60.292C204.783 60.292 204.012 60.02 203.468 59.476C202.924 58.8867 202.652 58.0933 202.652 57.096V28.808C202.652 27.8107 202.924 27.04 203.468 26.496C204.012 25.9067 204.783 25.612 205.78 25.612C206.777 25.612 207.548 25.9067 208.092 26.496C208.636 27.04 208.908 27.8107 208.908 28.808V57.096C208.908 58.0933 208.636 58.8867 208.092 59.476C207.548 60.02 206.777 60.292 205.78 60.292Z" fill="white"/>
<path d="M232.771 60.292C228.238 60.292 224.702 59 222.163 56.416C219.625 53.7867 218.355 50.1827 218.355 45.604V28.808C218.355 27.8107 218.627 27.04 219.171 26.496C219.761 25.9067 220.531 25.612 221.483 25.612C222.481 25.612 223.251 25.9067 223.795 26.496C224.339 27.04 224.611 27.8107 224.611 28.808V45.604C224.611 48.596 225.405 50.9307 226.991 52.608C228.623 54.24 230.89 55.056 233.791 55.056C237.327 55.056 240.161 53.9227 242.291 51.656C244.467 49.3893 245.555 46.3747 245.555 42.612V28.808C245.555 27.8107 245.827 27.04 246.371 26.496C246.961 25.9067 247.754 25.612 248.751 25.612C249.749 25.612 250.497 25.884 250.995 26.428C251.539 26.972 251.811 27.7653 251.811 28.808V57.096C251.811 58.1387 251.539 58.932 250.995 59.476C250.497 60.02 249.749 60.292 248.751 60.292C247.754 60.292 246.983 60.02 246.439 59.476C245.895 58.8867 245.623 58.0933 245.623 57.096V53.764C242.223 58.116 237.939 60.292 232.771 60.292Z" fill="white"/>
<path d="M263.324 60.292C262.327 60.292 261.556 60.02 261.012 59.476C260.468 58.8867 260.196 58.0933 260.196 57.096V28.808C260.196 27.8107 260.468 27.04 261.012 26.496C261.556 25.9067 262.327 25.612 263.324 25.612C264.321 25.612 265.092 25.9067 265.636 26.496C266.225 27.04 266.52 27.8107 266.52 28.808V31.936C267.653 29.9413 269.127 28.4 270.94 27.312C272.753 26.1787 274.68 25.612 276.72 25.612C278.805 25.612 280.641 26.1787 282.228 27.312C283.815 28.4 284.993 29.9413 285.764 31.936C289.073 27.72 292.813 25.612 296.984 25.612C300.565 25.612 303.285 26.768 305.144 29.08C307.048 31.392 308 34.7467 308 39.144V57.096C308 58.0933 307.705 58.8867 307.116 59.476C306.572 60.02 305.824 60.292 304.872 60.292C303.875 60.292 303.104 60.02 302.56 59.476C302.016 58.932 301.744 58.1387 301.744 57.096V38.872C301.744 36.1973 301.291 34.2027 300.384 32.888C299.477 31.528 297.981 30.848 295.896 30.848C292.269 30.848 289.527 32.9107 287.668 37.036V57.096C287.668 58.0933 287.373 58.8867 286.784 59.476C286.24 60.02 285.469 60.292 284.472 60.292C283.475 60.292 282.704 60.02 282.16 59.476C281.661 58.932 281.412 58.1387 281.412 57.096V40.028C281.412 37.036 280.913 34.7693 279.916 33.228C278.919 31.6413 277.468 30.848 275.564 30.848C272.889 30.848 270.713 31.9133 269.036 34.044C267.359 36.1293 266.52 38.8493 266.52 42.204V57.096C266.52 58.0933 266.225 58.8867 265.636 59.476C265.092 60.02 264.321 60.292 263.324 60.292Z" fill="white"/>
<path d="M330.189 60.292C325.656 60.292 322.12 59 319.581 56.416C317.043 53.7867 315.773 50.1827 315.773 45.604V28.808C315.773 27.8107 316.045 27.04 316.589 26.496C317.179 25.9067 317.949 25.612 318.901 25.612C319.899 25.612 320.669 25.9067 321.213 26.496C321.757 27.04 322.029 27.8107 322.029 28.808V45.604C322.029 48.596 322.823 50.9307 324.409 52.608C326.041 54.24 328.308 55.056 331.209 55.056C334.745 55.056 337.579 53.9227 339.709 51.656C341.885 49.3893 342.973 46.3747 342.973 42.612V28.808C342.973 27.8107 343.245 27.04 343.789 26.496C344.379 25.9067 345.172 25.612 346.169 25.612C347.167 25.612 347.915 25.884 348.413 26.428C348.957 26.972 349.229 27.7653 349.229 28.808V57.096C349.229 58.1387 348.957 58.932 348.413 59.476C347.915 60.02 347.167 60.292 346.169 60.292C345.172 60.292 344.401 60.02 343.857 59.476C343.313 58.8867 343.041 58.0933 343.041 57.096V53.764C339.641 58.116 335.357 60.292 330.189 60.292Z" fill="white"/>
<g clip-path="url(#clip1_2_2)">
<path fill-rule="evenodd" clip-rule="evenodd" d="M-15.5 -7.5H73.5V81.5H-15.5V-7.5ZM-10.5 -2.5V76.5H68.5V-2.5H-10.5ZM29 5.375C22.7011 5.375 16.6602 7.87722 12.2062 12.3312C7.75222 16.7852 5.25 22.8261 5.25 29.125C5.25 35.7553 7.95893 43.0981 12.4042 48.7718C16.8569 54.4549 22.7641 58.125 29 58.125C35.2359 58.125 41.1431 54.4549 45.5958 48.7718C50.0411 43.0981 52.75 35.7553 52.75 29.125C52.75 22.8261 50.2478 16.7852 45.7938 12.3312C41.3398 7.87722 35.2989 5.375 29 5.375ZM8.67068 8.79568C14.0623 3.40401 21.375 0.375 29 0.375C36.625 0.375 43.9376 3.40401 49.3293 8.79568C54.721 14.1874 57.75 21.5 57.75 29.125C57.75 36.9978 54.5855 45.405 49.5316 51.8555C45.9508 56.4259 41.2767 60.1843 35.9103 61.9819L39.1962 70.1965C39.5043 70.9668 39.4102 71.8396 38.9452 72.5266C38.4801 73.2135 37.7046 73.625 36.875 73.625H21.125C20.2954 73.625 19.5199 73.2135 19.0548 72.5266C18.5898 71.8396 18.4957 70.9668 18.8038 70.1965L22.0897 61.9819C16.7233 60.1843 12.0492 56.4259 8.46841 51.8555C3.41451 45.405 0.25 36.9978 0.25 29.125C0.25 21.5 3.27901 14.1874 8.67068 8.79568ZM27.0534 63.0355L24.8176 68.625H33.1824L30.9466 63.0355C30.3047 63.0946 29.6557 63.125 29 63.125C28.3443 63.125 27.6953 63.0946 27.0534 63.0355ZM29.159 13.1941C29.3857 11.8321 30.6736 10.9119 32.0356 11.1386C35.7751 11.7613 39.2266 13.5371 41.9072 16.2178C44.5879 18.8984 46.3637 22.3499 46.9864 26.0894C47.2131 27.4514 46.2929 28.7393 44.9309 28.9661C43.569 29.1928 42.281 28.2726 42.0543 26.9106C41.6028 24.1993 40.3153 21.6969 38.3717 19.7533C36.4281 17.8097 33.9257 16.5222 31.2144 16.0707C29.8524 15.844 28.9322 14.556 29.159 13.1941Z" fill="white"/>
</g>
</g>
<defs>
<clipPath id="clip0_2_2">
<rect width="349" height="74" fill="white"/>
</clipPath>
<clipPath id="clip1_2_2">
<rect width="58" height="74" fill="white"/>
</clipPath>
</defs>
</svg>
